<?xml version="1.0" encoding="utf-8"?>
<!-- Generator: Adobe Illustrator 19.0.0, SVG Export Plug-In . SVG Version: 6.00 Build 0)  -->
<svg version="1.1" id="Layer_1" xmlns="http://www.w3.org/2000/svg" xmlns:xlink="http://www.w3.org/1999/xlink" x="0px" y="0px"
	 viewBox="0 0 333.1 206.5" style="enable-background:new 0 0 333.1 206.5;" xml:space="preserve">
<style type="text/css">
	.Arched_x0020_Green{fill:url(#SVGID_1_);stroke:#FFFFFF;stroke-width:0.25;stroke-miterlimit:1;}
	.st0{fill-rule:evenodd;clip-rule:evenodd;fill:none;stroke:#000000;stroke-width:1.689;stroke-miterlimit:22.9256;}
</style>
<linearGradient id="SVGID_1_" gradientUnits="userSpaceOnUse" x1="-135.21" y1="522.1178" x2="-134.5029" y2="521.4107">
	<stop  offset="0" style="stop-color:#1EAB4B"/>
	<stop  offset="0.9831" style="stop-color:#19361A"/>
</linearGradient>
<g>
	<g>
		<path d="M150.8,182.5h-5l4.9-23.2h4.9L150.8,182.5z M165,182.5h-4.9l0.9-4.2c0.1-0.6,0.2-1,0.2-1.3c0-0.5-0.3-0.9-0.8-1
			c-0.2-0.1-0.7-0.1-1.5-0.1h-6.3l10.1-10.8h6l-6.6,6.6c1.6,0,2.8,0.2,3.5,0.5c0.7,0.4,1,1.1,1,2.1c0,0.6-0.1,1.3-0.3,2.2L165,182.5
			z"/>
		<path d="M173.4,182.5h-5l3.7-17.4h4.9L173.4,182.5z M177.5,163.3h-4.9l0.8-4h5L177.5,163.3z"/>
		<path d="M186.1,182.5h-3.9c-1.9,0-3.2-0.2-3.9-0.6c-0.7-0.4-1.1-1.1-1.1-2.2c0-0.6,0.1-1.3,0.3-2.2l3.8-18.2h5l-1.2,5.8
			c0.2,0,1.8,0,4.7,0l-0.9,4.2h-4.8l-1.4,6.6c-0.1,0.6-0.2,1-0.2,1.3c0,0.6,0.3,0.9,0.8,1c0.2,0.1,0.7,0.1,1.5,0.1h2.1L186.1,182.5z
			"/>
		<path d="M209.2,175.9h-11.5l0.9-4.2h6.7c0.2-0.8,0.3-1.2,0.3-1.2c0-0.8-0.6-1.2-1.9-1.2h-4c-1.1,0-1.8,0.1-2.2,0.4
			c-0.4,0.3-0.8,1-1,2.1l-0.9,4.2c-0.1,0.6-0.2,1.1-0.2,1.4c0,0.5,0.3,0.9,0.9,1c0.2,0,0.7,0.1,1.5,0.1h10.1l-0.9,4.2h-12
			c-1.9,0-3.1-0.2-3.8-0.5c-0.8-0.4-1.2-1.1-1.2-2.2c0-0.6,0.1-1.3,0.3-2.2l1.6-7.6c0.4-1.8,1.1-3,2.1-3.8c1.1-0.8,2.6-1.1,4.6-1.1
			h7.1c1.9,0,3.2,0.2,3.9,0.6c0.7,0.4,1.1,1.1,1.1,2.2c0,0.6-0.1,1.3-0.3,2.2L209.2,175.9z"/>
		<path d="M215.8,182.5h-5l4.9-23.2h4.9L215.8,182.5z M229.9,182.5H225l0.9-4.2c0.1-0.6,0.2-1,0.2-1.3c0-0.5-0.3-0.9-0.8-1
			c-0.2-0.1-0.7-0.1-1.5-0.1h-6.3l10.1-10.8h6.1l-6.6,6.6c1.6,0,2.8,0.2,3.5,0.5c0.7,0.4,1,1.1,1,2.1c0,0.6-0.1,1.3-0.3,2.2
			L229.9,182.5z"/>
		<path d="M238.1,182.5h-4.9l4.9-23.2h4.9L238.1,182.5z"/>
		<path d="M260.4,182.5h-5l0.5-2.2c-0.9,1.4-2.2,2.2-3.7,2.2H247c-1.9,0-3.2-0.2-3.9-0.5c-0.7-0.4-1.1-1.1-1.1-2.2
			c0-0.6,0.1-1.3,0.3-2.2l2.6-12.5h4.9l-2.3,10.8c-0.1,0.6-0.2,1.1-0.2,1.4c0,0.5,0.3,0.9,0.8,1c0.2,0,0.7,0.1,1.5,0.1h3.9
			c1.1,0,1.9-0.1,2.3-0.4c0.4-0.3,0.7-0.9,0.9-2.1l2.3-10.8h5L260.4,182.5z"/>
		<path d="M283.1,177.6c-0.4,2-1.1,3.4-2,4c-0.9,0.6-2.5,0.9-4.8,0.9h-12.8l4.9-23.2h5l-4.1,19h6c1.1,0,1.9-0.1,2.2-0.3
			c0.4-0.3,0.8-1,1-2.1l0.8-4.2c0.1-0.6,0.2-1,0.2-1.3c0-0.5-0.3-0.9-0.9-1c-0.2-0.1-0.7-0.1-1.5-0.1h-4.2l0.9-4.2h6
			c1.9,0,3.2,0.2,3.9,0.6c0.7,0.4,1.1,1.1,1.1,2.2c0,0.6-0.1,1.3-0.3,2.2L283.1,177.6z"/>
		<path d="M304.6,177.6c-0.4,2-1.1,3.4-2,4c-0.9,0.6-2.5,0.9-4.8,0.9H285l4.9-23.2h5l-4.1,19h6c1.1,0,1.9-0.1,2.2-0.3
			c0.4-0.3,0.8-1,1-2.1l0.8-4.2c0.1-0.6,0.2-1,0.2-1.3c0-0.5-0.3-0.9-0.9-1c-0.2-0.1-0.7-0.1-1.5-0.1h-4.2l0.9-4.2h6
			c1.9,0,3.2,0.2,3.9,0.6c0.7,0.4,1.1,1.1,1.1,2.2c0,0.6-0.1,1.3-0.3,2.2L304.6,177.6z"/>
	</g>
	<g>
		<path d="M41.9,100.6C41.8,100.7,41.8,100.7,41.9,100.6C41.8,100.7,41.8,100.6,41.9,100.6z"/>
		<g>
			<circle cx="58.6" cy="124.8" r="2.3"/>
			<circle cx="51.2" cy="113.4" r="3.5"/>
			<circle cx="62.6" cy="106" r="3.4"/>
			<circle cx="49.2" cy="122.7" r="3.6"/>
			<circle cx="64.6" cy="96.7" r="3.4"/>
			<circle cx="76" cy="89.3" r="2.4"/>
			<circle cx="74" cy="98.7" r="2.4"/>
			<circle cx="47.2" cy="132.1" r="2.5"/>
			<path d="M6.9,149.8c1.3,2,0.7,4.6-1.3,5.9c-1.6,1-3.6,0.8-5-0.3v-6.5c0.1-0.1,0.3-0.2,0.4-0.3C3,147.3,5.6,147.9,6.9,149.8z"/>
			<circle cx="15" cy="144.8" r="4.2"/>
			<circle cx="24.4" cy="146.8" r="3.4"/>
			<circle cx="26.4" cy="137.4" r="4.2"/>
			<g>
				<path d="M73.9,24.3c17.7-0.6,29.6,5.2,37.4,11.7c12.2,12.3,14.5,39.5,14.6,40.2c0.1,0.7-1.8,3.1-5.1,4.1
					c-13.3-2.2-22.5,1.6-28,3.2L73.9,24.3z"/>
				<path d="M0.6,144.5c0.1-0.2,0.6-0.4,0.7-0.7c0.1,0.5,0.3,1,0.6,1.4c1.4,2.1,4.2,2.7,6.3,1.4c2.1-1.4,2.7-4.2,1.4-6.3
					c-0.4-0.6-0.9-1.1-1.5-1.5c0.9,0,1.8-0.3,2.6-0.8c0.7-0.5,1.3-1.1,1.7-1.8c0.1,0,0.2,0,0.3,0c0.1,0.5,0.3,1.1,0.6,1.6
					c1.4,2.1,4.2,2.7,6.3,1.4c2.1-1.4,2.7-4.2,1.3-6.3c-0.4-0.6-0.8-1-1.4-1.4c0.9-0.1,1.7-0.3,2.5-0.8c0.9-0.6,1.6-1.4,2-2.4
					c0,0.8,0.3,1.5,0.7,2.2c1.4,2.1,4.2,2.7,6.3,1.4c2.1-1.4,2.7-4.2,1.4-6.3c-0.4-0.6-0.9-1.1-1.5-1.5c0.9-0.1,1.8-0.3,2.6-0.9
					c1-0.6,1.7-1.5,2.1-2.5c0,0.8,0.3,1.6,0.7,2.3c1.4,2.1,4.2,2.7,6.3,1.4c2.1-1.4,2.7-4.2,1.4-6.3c-1.4-2.1-4.2-2.7-6.3-1.4
					c-0.7,0.5-1.3,1.1-1.6,1.9c0-1-0.3-2.1-0.9-3c-0.3-0.5-0.6-0.9-1-1.2c0.5-0.1,1-0.4,1.4-0.7c0.8-0.5,1.5-1.2,1.9-2.1
					c0.1,0.7,0.3,1.4,0.7,2c1.4,2.2,4.4,2.8,6.6,1.4c2.2-1.4,2.8-4.4,1.4-6.6c-0.4-0.6-0.9-1.1-1.5-1.5c0.8-0.1,1.7-0.3,2.4-0.8
					c1.1-0.7,1.8-1.7,2.2-2.9c-0.1,0.9,0.1,1.9,0.7,2.7c1.3,2,3.9,2.5,5.9,1.3c2-1.3,2.5-3.9,1.3-5.9c-1.3-2-3.9-2.5-5.9-1.3
					c-0.8,0.5-1.4,1.3-1.7,2.2c0.1-1.2-0.1-2.4-0.8-3.5c-0.3-0.5-0.7-0.9-1.2-1.3c0.6-0.1,1.1-0.4,1.6-0.7c0.4-0.3,0.8-0.6,1.1-1
					c0.3-0.2,0.7-0.3,1-0.5c0.1,0.6,0.3,1.1,0.6,1.6c1.3,2,3.9,2.6,5.9,1.3c2-1.3,2.6-3.9,1.3-5.9c-0.1-0.2-0.2-0.3-0.4-0.5
					c2.1-0.9,4-1.7,5.9-2.4c1.1,1.1,2.8,1.3,4.2,0.4c0.9-0.6,1.4-1.5,1.5-2.5c12.9-4.2,18.6-3.1,21.2-3.7c0.1,0,0.2,0,0.3-0.1
					L72.4,24.4c-0.4,0-0.8,0-1.2,0.1c-18,2-29.7,6.6-39.2,12.9c1.1,0.2,2.2,0.5,3.1,0.5c2.1,0,4.7-0.3,12.7,5.5
					c2.7,1.9,4.5,6.9,3.4,10.9c-1.1,4-4.8,6.9-8,9c-0.3,0.2-10.4,4-11.8,2.3c-1.3-1.5,5.6-6,3.8-7.8c-1.4-1.4-2,3.5-3.5,2.8
					c-1.1-0.5,0.9-2.3,1-3.5c0.1-2-2.2-2.7-2.7-0.1c-0.2,1-0.5,1.9-0.8,2.9c-0.6,2.1-1.6,4.3-2.8,2.7c-1-1.5,1.3-9.8,1.2-12.7
					c-0.1-2.1-1.4-5.3-2.1-7.8c-0.7,0.6-1.4,1.1-2.1,1.7c0.2,0.4,0.3,0.7,0.4,1c2,4.3,1.2,7,0.2,10.6c-0.2,0.6-0.9,2.9-1,3.2
					c-0.5,1.7,1.1,5.8-0.6,5.3c-3-1-2.4-13.5-5.2-12.3c-2,0.9,2.3,4.7,1,6.4c-0.9,1.3-2.6-2.3-3.5-3.3c-0.5-0.5-0.9-0.7-1.4-0.7
					c-0.4,0.5-0.8,1.1-1.2,1.7c0.1,0.2,0.3,0.3,0.5,0.5c1.2,1,3.7,5.8,2.1,7.1c-0.8,0.7-3.3,0-6.4-1.4c-0.3,0.5-0.6,1.1-0.9,1.6
					c0.8,0.3,1.6,0.6,2.2,0.7c1.6,0.4,4.8,1.7,5.2,3.5c0.2,1-4.2-1-8.1-2.7c-0.3,0.7-0.6,1.3-1,2c2.8,0.9,6.3,2.1,6.3,2.3
					c-0.7,2.6-5.2,2.5-8.5,2.9c-0.4,1-0.8,2-1.1,3.1c2.6,0.2,6.9-0.2,8.3,1.3c1.5,1.6-5.8,1.4-5.5,3.6c0.4,2.1,9.5-3.3,11.7-3.2
					c0.9,0,1.9,1.7,1.8,2.6c-0.5,5.6-0.6,10,0.9,12.5c0.7,1,1,0.5,1.1-0.2c0.2-1.1-0.3-5.6,1-5.9c0.9-0.2,3.1,2.5,4.8,4.5
					c2.4,2.8,3.9,3.9,5.9,5.7c0.8,1-1,2.5-1.5,3c-1.7,1.2-0.9,4-2.7,6c-1.9,2.2-3.4-0.1-6.3,1.6c-1.9,1.1-3.9,1.8-6.7,1
					c-2.9-0.8-3.9-1.4-5.4-3.1c-1.9-2.1-3.3-1.4-6.1-2.1c-0.9-0.2-2.4-0.6-3.2-1.1V144.5z M31.8,81.4c1.1-1.2,3.2,1.8,3.6,0.1
					c0.3-1.6-8.2-3.8-7.3-7.6c0.4-1.9,5.5,1.9,6.2,2.1c2,0.5,8.5,1.9,7.3,0.6c-2.1-2.2-5.1-2.1-7.3-3.3c-1.9-1-6.1-3-6.1-4
					c0-2,4.2-1.3,6.3-1.6c4.5-0.5,8.8-1.3,12.2-4.5c1-0.9,4.6-2.2,5.9-2.4c2-0.2,3.8,0.4,5.7,1.4c1.9,1,3.1,5.3,2.8,7.5
					c-0.2,1.9-5.3,3.3-5.9,5.5c-0.8,3.1-0.3,6.2-1.2,9.2c-0.7,2.5-6.8,4.6-9,4.2C39.8,87.7,31.2,82,31.8,81.4z M36.2,105.5
					c0.5-0.2,0.9-0.4,1.3-0.6c0.5-0.3,1-0.8,1.4-1.2c0.1,0.4,0.3,0.8,0.6,1.2c0.5,0.8,1.1,1.4,1.9,1.8c-0.7,0.1-1.4,0.3-2,0.7
					c-0.7,0.4-1.2,1-1.5,1.6c-0.1-0.9-0.3-1.7-0.9-2.5C36.7,106.1,36.5,105.8,36.2,105.5z M25.4,85.7c-5-7.6-8.9-14.3-5.4-15.6
					c3.5-1.3,4.5,1.6,4.4,3.3c-0.1,1.7-0.3,2.9,0.1,6.7c0.4,3.8,6.7,12.7,12.7,17.3c1.5,1.1,2.5,1.9,3.2,2.4l-0.8,0.6
					C37.2,98.3,29.7,92.1,25.4,85.7z M27.4,114.2c-0.3,0.2-0.6,0.4-0.8,0.7c-0.1-0.2-0.2-0.5-0.4-0.7c0.5-0.6,1-1.2,1.5-1.9
					c0,0,0,0.1,0,0.1c0.3,0.5,0.7,0.9,1,1.2C28.4,113.7,27.9,113.9,27.4,114.2z M23.1,122.9c0.4-0.2,0.8-0.3,1.2-0.6
					c0.5-0.3,0.9-0.7,1.2-1.1c0.1,0.2,0.2,0.3,0.3,0.5c0.5,0.8,1.3,1.5,2.1,1.9c-0.6,0.1-1.3,0.3-1.9,0.7c-0.8,0.5-1.3,1.2-1.7,1.9
					c0-1-0.3-1.9-0.8-2.8C23.4,123.2,23.2,123,23.1,122.9z M16.4,130.9C16.4,130.9,16.4,130.9,16.4,130.9
					C16.4,130.9,16.5,130.9,16.4,130.9C16.4,130.9,16.4,130.9,16.4,130.9z"/>
			</g>
			<circle cx="37.8" cy="130.1" r="3.6"/>
			<circle cx="45.1" cy="141.5" r="2.3"/>
			<circle cx="35.8" cy="139.5" r="3.4"/>
			<circle cx="33.8" cy="148.8" r="2.5"/>
		</g>
		<path d="M14.7,85.3c0.6-6.4,2.9-6.1,2.4-2.4c-0.7,4.5-3.9,7.8-7.5,10.3c-2.6,1.8-5,3.9-7.9,4.9c-0.3,0.1-0.6,0.1-1,0.1v-2.8
			C5.4,94.9,14.3,89,14.7,85.3z"/>
	</g>
	<g>
		<path d="M85.3,129.5c-0.5,2.5-1.4,4.2-2.4,4.9c-1.1,0.8-3.1,1.2-5.9,1.2H60.4l1.1-5.2h14.3c1.4,0,2.3-0.1,2.7-0.4
			c0.5-0.4,1-1.2,1.3-2.6l0.1-0.7c0.1-0.7,0.2-1.3,0.2-1.7c0-0.9-0.6-1.3-1.7-1.3h-8.7c-2,0-3.5-0.5-4.5-1.3
			c-0.8-0.7-1.3-1.7-1.3-2.9c0-0.3,0-0.6,0.1-0.9l1.2-5.7c0.5-2.5,1.4-4.2,2.5-5c1.1-0.8,3.1-1.1,5.9-1.1h16.6l-1.1,5.2H74.9
			c-1.4,0-2.3,0.1-2.7,0.4c-0.5,0.4-0.9,1.2-1.2,2.6l-0.1,0.6c-0.2,0.7-0.2,1.3-0.2,1.7c0,0.7,0.3,1.1,1,1.3
			c0.3,0.1,0.9,0.1,1.8,0.1h8.3c3.2,0,4.8,1.5,4.8,4.5c0,0.5-0.1,1.1-0.2,1.6L85.3,129.5z"/>
		<path d="M116.9,112h-7.9l-5,23.6h-6.1l5-23.6h-7.3l1.1-5.2h21.3L116.9,112z"/>
		<path d="M138.8,135.6H132l-0.3-4.3h-8.4l-2.2,4.3h-6.8l13.9-28.7h8.8L138.8,135.6z M131.3,126.2l-0.7-9.4l-4.7,9.4H131.3z"/>
		<path d="M171.1,106.9l-13.9,28.7h-8.9l-1.7-28.7h6.8l1.4,18.9l9.5-18.9H171.1z"/>
		<path d="M192.5,135.6h-6.8l-0.3-4.3H177l-2.2,4.3h-6.8l13.9-28.7h8.8L192.5,135.6z M185,126.2l-0.7-9.4l-4.7,9.4H185z"/>
		<path d="M221.8,135.6h-7.1l-6.2-16.2l-3.5,16.2h-6.1l6.1-28.7h6.2l6.6,18.8l4.1-18.8h6.1L221.8,135.6z"/>
		<path d="M253.4,135.6h-16.1c-2.3,0-3.9-0.2-4.8-0.7c-1-0.5-1.4-1.4-1.4-2.7c0-0.7,0.1-1.6,0.4-2.7l3.5-16.5c0.5-2.6,1.4-4.2,2.5-5
			c1.1-0.8,3.1-1.2,6-1.2h16.1l-1.1,5.2h-13.9c-1.4,0-2.3,0.1-2.7,0.4c-0.5,0.3-0.9,1.2-1.2,2.6l-2.7,12.3c-0.1,0.7-0.2,1.3-0.2,1.6
			c0,0.7,0.3,1.1,1,1.3c0.3,0.1,0.9,0.1,1.9,0.1h7.8l1.4-6.7h-7.1l1.1-5.2H257L253.4,135.6z"/>
		<path d="M283.9,135.6h-23.3l4.4-20.5h6l-0.7,3.5h7.8l-1.1,5.2h-7.8l-1.4,6.6h17.1L283.9,135.6z M288.8,112.1h-23.2l1-5.2H290
			L288.8,112.1z"/>
		<path d="M313.4,135.6h-6l1.5-7.3c0.1-0.7,0.2-1.3,0.2-1.6c0-0.7-0.3-1.1-1-1.3c-0.3-0.1-0.9-0.1-1.8-0.1h-7.8l-2.2,10.3h-6.1
			l4.4-20.5h6.1l-1.1,5.1h7.8c1.4,0,2.4-0.2,2.8-0.5c0.5-0.3,0.9-1.2,1.2-2.5l0.4-2.1c0.1-0.8,0.2-1.3,0.2-1.7c0-0.7-0.3-1.1-1-1.3
			c-0.3-0.1-0.9-0.1-1.9-0.1h-13.9l1.1-5.2h16.2c2.3,0,3.9,0.2,4.7,0.6c1,0.5,1.4,1.4,1.4,2.7c0,0.7-0.1,1.6-0.4,2.7l-1.3,6.2
			c-0.2,0.9-0.6,1.7-1,2.3c-0.6,0.8-1.2,1.2-2,1.2c1.1,0.2,1.6,1,1.6,2.3c0,0.4-0.1,0.7-0.2,1.2L313.4,135.6z"/>
	</g>
	<path class="st0" d="M41.4,99.5l-7.8,3.4L2.5,132.9c4.4,9.4,14,15.9,25.2,15.9h276.9c15.3,0,27.6-12.1,27.6-27.1l0,0
		c0-15-12.4-27.1-27.6-27.1H40.8L41.4,99.5z"/>
</g>
</svg>
